<?xml version="1.0" encoding="utf-8"?>
<!-- Generator: Adobe Illustrator 23.0.3, SVG Export Plug-In . SVG Version: 6.00 Build 0)  -->
<svg version="1.1" id="Layer_1" xmlns="http://www.w3.org/2000/svg" xmlns:xlink="http://www.w3.org/1999/xlink" x="0px" y="0px"
	 viewBox="0 0 50 50" style="enable-background:new 0 0 50 50;" xml:space="preserve">
<style type="text/css">
	.st0{display:none;}
	.st1{display:inline;fill:none;stroke:#EF6724;stroke-width:2;stroke-miterlimit:10;}
	.st2{fill:#EF6724;stroke:#EF6724;stroke-width:0.25;stroke-linecap:round;stroke-linejoin:round;stroke-miterlimit:10;}
	.st3{fill:none;stroke:#EF6724;stroke-linecap:round;stroke-linejoin:round;stroke-miterlimit:10;}
	.st4{fill:none;stroke:#EF6724;stroke-width:2;stroke-linecap:round;stroke-linejoin:round;stroke-miterlimit:10;}
</style>
<g class="st0">
	<rect class="st1" width="25" height="25"/>
	<rect x="25" class="st1" width="25" height="25"/>
	<rect y="25" class="st1" width="25" height="25"/>
	<rect x="25" y="25" class="st1" width="25" height="25"/>
</g>
<g>
	<g>
		<g>
			<g>
				<path class="st2" d="M21.1,23.03l-0.04-7.95l-3.86,6.47h-1.89l-3.84-6.26v7.74H7.56v-15h3.49l5.27,8.66l5.14-8.66h3.49l0.04,15
					H21.1z"/>
			</g>
		</g>
		<g>
			<g>
				<path class="st2" d="M41.64,16.54h-8.27c0.34,1.15,1.32,1.83,2.79,1.83c1.11,0,1.85-0.31,2.62-0.99l2.1,2.18
					c-1.09,1.22-2.69,1.85-4.85,1.85c-4.05,0-6.68-2.5-6.68-5.9c0-3.42,2.67-5.86,6.26-5.86c3.36,0,6.09,2.14,6.09,5.9
					C41.7,15.85,41.66,16.22,41.64,16.54z M33.31,14.44h4.66c-0.21-1.2-1.09-1.95-2.33-1.95S33.54,13.24,33.31,14.44z"/>
			</g>
		</g>
		<g>
			<g>
				<path class="st2" d="M22.34,33.75v6.51h-3.99V34.4c0-1.64-0.71-2.33-1.87-2.33c-1.28,0-2.27,0.8-2.27,2.69v5.5h-3.99V28.88h3.8
					v1.24c0.9-0.94,2.18-1.43,3.61-1.43C20.3,28.69,22.34,30.22,22.34,33.75z"/>
			</g>
		</g>
		<g>
			<g>
				<path class="st2" d="M28.62,35.13v-8.15h4.16V35c0,2.52,1.05,3.53,2.79,3.53c1.72,0,2.77-1.01,2.77-3.53v-8.02h4.09v8.15
					c0,4.39-2.56,6.84-6.91,6.84C31.18,41.97,28.62,39.51,28.62,35.13z"/>
			</g>
		</g>
	</g>
	<rect x="4.08" y="3" class="st3" width="41.84" height="44"/>
</g>
</svg>
